<svg xmlns="http://www.w3.org/2000/svg" x="0px" y="0px"
     width="50" height="50"
     viewBox="0 0 252 252"
     style="fill:#ffffff;"><g fill="none" fill-rule="nonzero" stroke="none" stroke-width="1" stroke-linecap="butt" stroke-linejoin="miter" stroke-miterlimit="10" stroke-dasharray="" stroke-dashoffset="0" font-family="none" font-weight="none" font-size="none" text-anchor="none" style="mix-blend-mode: normal"><path d="M0,252v-252h252v252z" fill="none"></path><g id="original-icon" fill="#ffffff"><path d="M126,25.2c-55.57081,0 -100.8,45.22919 -100.8,100.8c0,55.5708 45.22919,100.8 100.8,100.8c55.5708,0 100.8,-45.2292 100.8,-100.8c0,-55.57081 -45.2292,-100.8 -100.8,-100.8zM126,42c46.49141,0 84,37.50859 84,84c0,46.49141 -37.50859,84 -84,84c-46.49141,0 -84,-37.50859 -84,-84c0,-46.49141 37.50859,-84 84,-84zM88.2,109.2c-6.95879,0 -12.6,5.64121 -12.6,12.6c0,6.95879 5.64121,12.6 12.6,12.6c6.95879,0 12.6,-5.64121 12.6,-12.6c0,-6.95879 -5.64121,-12.6 -12.6,-12.6zM163.8,109.2c-6.95879,0 -12.6,5.64121 -12.6,12.6c0,6.95879 5.64121,12.6 12.6,12.6c6.95879,0 12.6,-5.64121 12.6,-12.6c0,-6.95879 -5.64121,-12.6 -12.6,-12.6zM126,151.2c-12.74,0 -22.861,5.09349 -29.61328,10.00781c-3.74954,2.73244 -4.57485,7.98674 -1.84358,11.73713c2.73127,3.7504 7.98531,4.57734 11.73656,1.84725c4.78932,-3.48568 11.46031,-6.79219 19.72031,-6.79219c8.26,0 14.93099,3.30651 19.72031,6.79219c2.42657,1.76833 5.61232,2.10746 8.35677,0.88959c2.74445,-1.21787 4.63048,-3.80764 4.94738,-6.79341c0.3169,-2.98577 -0.98351,-5.91373 -3.41118,-7.68055c-6.75228,-4.91432 -16.87328,-10.00781 -29.61328,-10.00781z"></path></g></g></svg>