<svg xmlns="http://www.w3.org/2000/svg" x="0px" y="0px"
     width="50" height="50"
     viewBox="0 0 252 252"
     style="fill:#ffffff;"><g fill="none" fill-rule="nonzero" stroke="none" stroke-width="1" stroke-linecap="butt" stroke-linejoin="miter" stroke-miterlimit="10" stroke-dasharray="" stroke-dashoffset="0" font-family="none" font-weight="none" font-size="none" text-anchor="none" style="mix-blend-mode: normal"><path d="M0,252v-252h252v252z" fill="none"></path><g fill="#ffffff"><path d="M126,25.2c-55.57081,0 -100.8,45.22919 -100.8,100.8c0,55.5708 45.22919,100.8 100.8,100.8c55.5708,0 100.8,-45.2292 100.8,-100.8c0,-55.57081 -45.2292,-100.8 -100.8,-100.8zM126,42c46.49141,0 84,37.50859 84,84c0,46.49141 -37.50859,84 -84,84c-46.49141,0 -84,-37.50859 -84,-84c0,-46.49141 37.50859,-84 84,-84zM88.2,109.2c-6.95879,0 -12.6,5.64121 -12.6,12.6c0,6.95879 5.64121,12.6 12.6,12.6c6.95879,0 12.6,-5.64121 12.6,-12.6c0,-6.95879 -5.64121,-12.6 -12.6,-12.6zM163.8,109.2c-6.95879,0 -12.6,5.64121 -12.6,12.6c0,6.95879 5.64121,12.6 12.6,12.6c6.95879,0 12.6,-5.64121 12.6,-12.6c0,-6.95879 -5.64121,-12.6 -12.6,-12.6zM100.75078,159.53438c-3.57054,0.20037 -6.62284,2.63918 -7.60626,6.07746c-0.98342,3.43828 0.31763,7.12224 3.24219,9.18035c6.75618,4.91001 16.87328,10.00781 29.61328,10.00781c12.74,0 22.861,-5.09349 29.61328,-10.00781c2.42767,-1.76682 3.72807,-4.69478 3.41118,-7.68055c-0.3169,-2.98577 -2.20292,-5.57554 -4.94738,-6.79341c-2.74445,-1.21787 -5.9302,-0.87875 -8.35677,0.88959c-4.78932,3.48568 -11.46031,6.79219 -19.72031,6.79219c-8.26,0 -14.93449,-3.3022 -19.73672,-6.79219c-1.35433,-1.01628 -2.98416,-1.59958 -4.67578,-1.67343c-0.27873,-0.0139 -0.55798,-0.0139 -0.83672,0z"></path></g></g></svg>